<?xml version="1.0" standalone="no"?>
<!DOCTYPE svg PUBLIC "-//W3C//DTD SVG 20010904//EN"
 "http://www.w3.org/TR/2001/REC-SVG-20010904/DTD/svg10.dtd">
<svg version="1.0" xmlns="http://www.w3.org/2000/svg"
 width="743.000000pt" height="751.000000pt" viewBox="0 0 743.000000 751.000000"
 preserveAspectRatio="xMidYMid meet">
<metadata>
Created by potrace 1.16, written by Peter Selinger 2001-2019
</metadata>
<g transform="translate(0.000000,751.000000) scale(0.100000,-0.100000)"
fill="#000000" stroke="none">
<path d="M0 3755 l0 -3755 3715 0 3715 0 -2 1788 c-1 983 -3 1767 -5 1742 -29
-424 -107 -771 -255 -1148 -467 -1187 -1548 -2067 -2803 -2282 -401 -68 -862
-68 -1267 0 -1438 243 -2623 1353 -2963 2775 -75 311 -100 532 -99 875 0 294
14 448 65 707 181 924 717 1754 1486 2301 516 367 1084 583 1743 664 140 17
660 17 800 0 876 -109 1608 -460 2211 -1062 389 -389 665 -817 858 -1333 119
-317 204 -719 224 -1057 2 -30 4 754 5 1743 l2 1797 -3715 0 -3715 0 0 -3755z"/>
<path d="M3450 7244 c-723 -67 -1364 -323 -1925 -770 -141 -113 -416 -388
-529 -529 -423 -532 -674 -1135 -758 -1820 -17 -144 -17 -613 0 -760 77 -648
306 -1225 686 -1730 541 -720 1348 -1210 2226 -1354 220 -36 339 -45 585 -45
574 1 1072 119 1585 378 981 494 1689 1454 1869 2531 39 237 46 325 45 610 0
290 -10 407 -55 645 -263 1388 -1356 2498 -2737 2780 -256 52 -355 61 -662 65
-157 1 -305 1 -330 -1z m624 -2835 c451 -276 833 -511 849 -521 81 -57 90
-207 16 -275 -25 -22 -1602 -989 -1673 -1025 -84 -43 -194 -4 -238 83 -17 32
-18 104 -18 1072 0 942 2 1042 16 1074 19 38 68 80 111 93 76 25 70 28 937
-501z"/>
</g>
</svg>
